<?xml version="1.0" encoding="UTF-8"?>
<svg id="Layer_2" data-name="Layer 2" xmlns="http://www.w3.org/2000/svg" viewBox="0 0 384 384">
  <defs>
    <style>
      .cls-1 {
        fill: #000;
      }

      .cls-1, .cls-2, .cls-3 {
        stroke-width: 0px;
      }

      .cls-2 {
        fill: none;
      }

      .cls-3 {
        fill: #fff;
      }
    </style>
  </defs>
  <g id="Layer_1-2" data-name="Layer 1">
    <g>
      <path class="cls-2" d="M0,0c128,0,256,0,384,0,0,128,0,256,0,384-128,0-256,0-384,0C0,256,0,128,0,0ZM258.1,193.47c.38-35.4-29-65.06-64.72-65.33-35.33-.27-64.67,28.72-65.24,64.45-.56,35.33,28.7,65.03,64.54,65.51,35.37.47,65.04-28.83,65.42-64.63Z"/>
      <path class="cls-1" d="M258.1,193.47c-.38,35.8-30.05,65.1-65.42,64.63-35.84-.48-65.1-30.18-64.54-65.51.57-35.73,29.91-64.72,65.24-64.45,35.72.27,65.1,29.93,64.72,65.33ZM193.19,141.35c-28.79-.01-51.81,22.91-51.84,51.6-.03,28.81,22.87,51.89,51.51,51.93,29.01.04,52.03-22.87,52.02-51.79,0-28.76-22.96-51.73-51.7-51.74Z"/>
      <path class="cls-3" d="M193.19,141.35c28.74.01,51.69,22.98,51.7,51.74,0,28.92-23.01,51.84-52.02,51.79-28.64-.04-51.54-23.13-51.51-51.93.03-28.7,23.05-51.61,51.84-51.6ZM199.73,199.73c6.53,0,12.5.09,18.46-.03,5.02-.1,7.9-3.42,7.12-7.88-.57-3.28-3.26-5.24-7.5-5.29-5.93-.06-11.86-.02-18.08-.02,0-1.97,0-3.44,0-4.92,0-4.73.13-9.47-.07-14.2-.17-4.09-2.93-6.63-6.63-6.59-3.54.04-6.09,2.52-6.47,6.4-.12,1.23-.05,2.49-.05,3.73,0,5.07,0,10.13,0,15.57-1.77,0-3.11,0-4.44,0-4.86,0-9.72-.12-14.57.06-4.1.15-6.68,2.86-6.68,6.55,0,3.69,2.58,6.28,6.68,6.57,1.74.12,3.49.04,5.23.04,4.55,0,9.09,0,13.79,0,0,5.48,0,10.33,0,15.19,0,7.43,1.88,10.45,6.51,10.51,4.76.06,6.71-3.05,6.71-10.69,0-4.83,0-9.67,0-15.01Z"/>
      <path class="cls-1" d="M199.73,199.73c0,5.34,0,10.17,0,15.01,0,7.64-1.95,10.75-6.71,10.69-4.64-.06-6.51-3.08-6.51-10.51,0-4.85,0-9.7,0-15.19-4.7,0-9.24,0-13.79,0-1.74,0-3.49.09-5.23-.04-4.1-.29-6.68-2.89-6.68-6.57,0-3.69,2.58-6.39,6.68-6.55,4.85-.18,9.71-.05,14.57-.06,1.34,0,2.68,0,4.44,0,0-5.43,0-10.5,0-15.57,0-1.25-.07-2.5.05-3.73.38-3.88,2.92-6.36,6.47-6.4,3.71-.04,6.46,2.5,6.63,6.59.2,4.73.06,9.46.07,14.2,0,1.47,0,2.94,0,4.92,6.22,0,12.15-.05,18.08.02,4.24.05,6.93,2.01,7.5,5.29.78,4.46-2.1,7.78-7.12,7.88-5.96.12-11.93.03-18.46.03Z"/>
    </g>
  </g>
</svg>