<?xml version="1.0" encoding="UTF-8"?>
<svg id="Layer_2" data-name="Layer 2" xmlns="http://www.w3.org/2000/svg" viewBox="0 0 383.27 342.48">
  <defs>
    <style>
      .cls-1 {
        fill: #000;
        stroke-width: 0px;
      }
    </style>
  </defs>
  <g id="Layer_1-2" data-name="Layer 1">
    <path class="cls-1" d="M383.27,97c-2.97,12.49-6,24.97-8.9,37.48-6.26,26.98-12.43,53.99-18.69,80.97-3.48,15-13.95,23.17-29.68,23.16-70.35-.02-140.71-.07-211.06-.1-1.62,0-3.25-.02-4.86.11-6.98.57-11.78,5.8-11.71,12.66.08,6.89,4.93,11.89,12.02,12.34,1.49.09,2.99.07,4.49.07,72.6,0,145.2,0,217.8,0,1.12,0,2.25-.04,3.37.01,5.55.25,9.81,3.49,11.12,8.41,1.32,4.98-.73,9.69-5.54,12.77-.41.26-.84.5-1.51.89,4.58,10.41,5.25,21,1.15,31.66-2.91,7.55-7.78,13.61-14.45,18.19-13.3,9.14-31.15,9.11-44.32-.03-15.36-10.66-19.54-25.3-13.92-49.15h-70.15c4.53,10.63,4.93,21.23.56,31.78-3.14,7.59-8.22,13.63-15.16,18.08-13.7,8.8-31.44,8.15-44.59-1.65-14.48-10.8-18.62-26.34-12.54-48.24-1.38-.08-2.65-.17-3.92-.22-6.34-.25-12.83.29-19-.88-17.1-3.25-28.96-18.92-28.03-36.03.95-17.31,14.18-31.19,31.54-33.08.6-.07,1.19-.22,2.16-.4-2.41-9.04-4.77-17.93-7.16-26.82-14.38-53.49-28.78-106.97-43.17-160.46-1.45-5.4-2.14-5.95-7.75-5.95-12.97,0-25.95.08-38.92-.03-8.99-.08-14.63-7.54-11.65-15.23C2.49,2.95,5.74.18,10.41.14c15.59-.12,31.19-.33,46.77.19,10.57.35,19.86,8.8,22.89,19.74,4.23,15.27,8.33,30.57,12.31,45.91.68,2.63,1.69,3.57,4.5,3.58,59.12.16,118.25.43,177.37.69,27.07.12,54.14.6,81.2.26,12.94-.16,23.19,3.56,27.82,18.99v7.5ZM99.52,92.17c4.47,16.66,8.79,32.65,13,48.67.58,2.21,1.8,2.52,3.76,2.51,12.46-.06,24.91-.03,37.37-.05.93,0,1.87-.21,3.03-.35-.15-1.76-.22-3.24-.41-4.71-1.9-14.21-3.9-28.42-5.66-42.65-.32-2.58-1.2-3.32-3.66-3.31-9.96.05-19.93-.07-29.9-.1-5.69-.02-11.38,0-17.54,0ZM245.13,92.86v50.06c.58.16.93.34,1.28.34,12.95.02,25.91,0,38.86.08,2.22.02,2.67-1.08,2.9-2.93,1.43-11.26,2.96-22.5,4.42-33.75.59-4.5,1.09-9.01,1.67-13.81h-49.14ZM179.54,143.01h42.59v-50.34h-49.29c2.26,16.92,4.48,33.59,6.71,50.34ZM310.47,143.11h38.86c3.83-16.61,7.62-33.08,11.54-50.1-14.27,0-28.09-.04-41.91.11-.78,0-2.06,1.56-2.21,2.54-1.12,7.15-2.03,14.33-2.96,21.51-1.11,8.52-2.18,17.04-3.32,25.94ZM166.33,216.07c-.12-1.76-.13-3-.29-4.22-1.9-14.21-3.93-28.4-5.66-42.63-.34-2.75-1.19-3.51-3.87-3.47-11.2.14-22.41.05-33.62.07-1.04,0-2.08.18-3.51.32,4.21,15.55,8.17,30.72,12.59,45.76.52,1.78,3.58,3.9,5.54,3.98,9.42.42,18.88.19,28.82.19ZM245.06,216.1c10.62,0,20.82.07,31.02-.12.83-.02,2.19-1.7,2.35-2.75,1.35-8.88,2.5-17.78,3.67-26.68.88-6.75,1.7-13.52,2.58-20.48h-39.6v50.04ZM222.24,166.08h-39.66c2.24,16.81,4.45,33.33,6.65,49.8h33.01v-49.8ZM300.83,216.08c9.38,0,18.21.07,27.04-.04,3.51-.04,5.24-2.3,5.99-5.6,3.15-13.85,6.38-27.68,9.55-41.53.21-.9.14-1.86.23-3.09-11.63,0-22.95-.06-34.26.13-.81.01-2.1,1.79-2.29,2.9-.86,5.04-1.41,10.12-2.07,15.19-1.37,10.49-2.74,20.99-4.19,32.03ZM162.81,319.92c9.33-.05,16.9-7.72,16.78-16.99-.13-9.1-7.71-16.65-16.79-16.72-9.24-.08-16.86,7.58-16.87,16.93,0,9.43,7.45,16.84,16.88,16.79ZM304.66,319.92c9.39,0,16.88-7.5,16.83-16.88-.05-9.3-7.78-16.97-16.98-16.84-9.15.13-16.56,7.62-16.63,16.8-.07,9.39,7.39,16.9,16.78,16.91Z"/>
  </g>
</svg>