<svg width="18" height="22" viewBox="0 0 18 22"  xmlns="http://www.w3.org/2000/svg">
<path d="M3 6.5V19.25C3 19.6642 3.33579 20 3.75 20H14.25C14.6642 20 15 19.6642 15 19.25V6.5H16.5V19.25C16.5 20.4926 15.4926 21.5 14.25 21.5H3.75C2.50736 21.5 1.5 20.4926 1.5 19.25V6.5H3ZM7.5 8V17.75H6V8H7.5ZM12 8V17.75H10.5V8H12ZM10.5 0.875C11.6983 0.875 12.6777 1.81169 12.7462 2.9928L12.75 3.125V3.5H17.25V5H0.75V3.5H5.25V3.125C5.25 1.92674 6.18669 0.947254 7.3678 0.87882L7.5 0.875H10.5ZM10.5 2.375H7.5C7.11537 2.375 6.79837 2.66453 6.75505 3.03753L6.75 3.125V3.5H11.25V3.125C11.25 2.74037 10.9605 2.42337 10.5875 2.38005L10.5 2.375Z"/>
</svg>
