<?xml version="1.0" encoding="UTF-8"?>
<svg id="Layer_2" data-name="Layer 2" xmlns="http://www.w3.org/2000/svg" version="1.1" viewBox="0 0 408.9 408.5">
  <defs>
    <style>
      .cls-1 {
        fill: #000;
        stroke-width: 0px;
      }
    </style>
  </defs>
  <g id="Layer_1-2" data-name="Layer 1-2">
    <g>
      <path class="cls-1" d="M408.9,206.8c-1.9,3.6-5,5.1-8.7,6.3-14.6,4.5-29.2,9.1-44,13.8v123c0,7.4-1.4,9.3-8.3,11.6-46.1,15.4-92.3,30.7-138.4,46.1-3.6,1.2-6.9,1.1-10.4-.2-40.9-15.4-81.8-30.7-122.8-46.1-6.3-2.4-7.6-4.3-7.6-11v-120.2c-14.6-4.9-29-9.6-43.3-14.5-6.1-2.1-7.9-7-4.8-12.6.5-.8,1-1.6,1.4-2.4,8.8-14.6,17.5-29.2,26.3-43.8.7-1.2,1.5-2.5,2.7-4.5-1.2-.9-2.5-1.6-3.6-2.6-14.5-14.5-29-28.9-43.5-43.5-6.4-6.4-4.9-12.7,3.9-15.4,42.2-13.2,84.4-26.4,126.7-39.5,2.8-.9,4.3-2.2,5.6-4.9C152.8,20.3,173.6,5.1,202.3.7c.8-.1,1.5-.5,2.2-.7h16c.7.2,1.4.6,2.2.7,31.1,4.8,52.7,21.8,64.4,51.1,1.3,3.2,3,4.8,6.2,5.7,35.7,10.9,71.3,21.9,107,32.8,3.7,1.1,6.9,2.7,8.7,6.3v4.8c-1.9,2.2-3.6,4.5-5.7,6.6-13.5,13.6-27,27.1-40.5,40.6-1,1-2,2-3.6,3.8,1.5,1.1,2.8,1.8,3.9,2.8,13.5,13.4,26.9,26.8,40.3,40.3,2,2,3.8,4.4,5.7,6.6v4.8h0ZM340.1,232.1c-2,.6-3.6,1-5.1,1.4-27.5,8.6-55,17.3-82.5,25.9-7.2,2.3-9.2,1.6-13.8-4.1-8-10-16-19.9-23.9-29.9-.6-.8-.9-1.8-1.3-2.7-.3.3-.7.7-1,1v166c42.6-14.2,85.1-28.4,127.5-42.5v-115.2h0ZM84.9,235.5c0,1-.2,1.5-.2,2,0,35.7,0,71.3,0,107,0,2.7,1.3,3.3,3.3,4.1,35.1,13.1,70.2,26.3,105.2,39.4,1,.4,2,.6,3,.9v-159.9c-6.3,10.5-12.1,20.2-18,29.9-2.8,4.5-5.8,5.6-10.8,4-6.3-2-12.6-4.1-18.9-6.2-21-7-42.1-14-63.5-21.2h0ZM212.7,143.7c34.9-.1,63.6-28.8,63.6-63.5S247.8,15.9,212.3,16c-34.7.1-63.8,29-63.7,63.5.1,35.6,28.8,64.4,64.2,64.2h0ZM385.8,200.8c-1.4-1.5-2.3-2.4-3.2-3.4-11.1-11.1-22.3-22.1-33.2-33.4-2.4-2.4-4.4-2.9-7.6-1.9-33.6,11.3-67.2,22.5-100.9,33.7-7.5,2.5-15,5.1-22.9,7.7,1.1,1.4,1.8,2.5,2.6,3.5,8.9,11.1,17.9,22.1,26.6,33.4,2,2.6,3.7,2.8,6.6,1.8,24.2-7.7,48.4-15.2,72.6-22.8,19.6-6.2,39.2-12.4,59.4-18.7ZM192.5,204c-43.1-14.4-85.6-28.5-128.2-42.7-8.5,14.2-16.8,28-25.2,42.1,43.1,14.4,85.6,28.5,128.2,42.7,8.4-14.1,16.7-27.8,25.2-42.1h0ZM86.3,151.6c1.9.8,2.7,1.1,3.4,1.3,37.3,12.4,74.6,24.9,112,37.2,1.9.6,4.5.4,6.5-.2,36.7-12.1,73.4-24.4,110-36.6,1.1-.4,2.3-.9,4.2-1.7-14.7-4.9-28.5-9.2-42.1-14.2-6.4-2.4-11.8-3.4-16.1,3.2-.1.2-.4.3-.6.5-34.5,27.7-81.1,24.2-111-8.5-1.7-1.9-3.1-2.2-5.4-1.4-15.3,5.2-30.7,10.3-46.1,15.5-4.6,1.5-9.2,3.1-14.8,5h0ZM23.4,102.6c.5.7.7,1.2,1.1,1.6,12.2,12.2,24.4,24.5,36.8,36.6,1,.9,3.4,1.1,4.8.6,15.2-4.9,30.3-10,45.4-15,9.9-3.3,19.9-6.6,29.1-9.7-2.3-8.2-5.2-15.8-6.6-23.7-1.3-7.9-1.1-16.1-1.6-24.4-35.9,11.2-72.3,22.5-109,34h0ZM281,120.7c1.4.6,2.3,1,3.3,1.3,19.4,6.5,38.9,12.9,58.2,19.4,2.7.9,4.3.5,6.2-1.5,11.4-11.6,22.9-23,34.4-34.5.8-.8,1.5-1.7,2.5-2.8-31.3-9.6-62.1-19.1-93.4-28.8.6,16.9-2.8,32.4-11.2,46.8Z"/>
      <path class="cls-1" d="M171.8,362.6c-.7-.2-2.3-.5-3.8-1-14.8-5.5-29.6-11.1-44.4-16.6-.8-.3-1.5-.6-2.2-.9-4.1-2.2-5.7-6.2-4.2-10,1.6-4,5.7-6,10.2-4.6,3.3,1,6.5,2.4,9.7,3.6,12.2,4.6,24.4,9.1,36.6,13.7,5.6,2.1,7.9,6.2,6.2,10.7-1.1,3.2-3.9,5.2-8.1,5.2h0Z"/>
      <path class="cls-1" d="M172,329.2c-7.4-3-15-5.8-22.2-9.3-3.2-1.6-3.6-5.4-2.3-8.9,1.3-3.3,5-5.7,8.2-4.7,7,2.2,14,4.8,20.8,7.7,3.4,1.5,4.6,5.5,3.5,8.8-1.1,3.5-4.2,5.7-8.1,6.3h0Z"/>
      <path class="cls-1" d="M124.7,295.5c4.2,0,7.9,3.8,7.8,8,0,4.2-3.8,7.9-8,7.8-4.2,0-7.9-3.8-7.8-8,0-4.2,3.8-7.9,8-7.8h0Z"/>
      <path class="cls-1" d="M204.2,92.9c13.9-14,27.1-27.1,40.2-40.3,1.3-1.3,2.7-2.7,4.2-3.6,3.3-1.9,6.4-1.3,9.2,1.2,2.7,2.4,3.3,6.3,1.4,9.5-.9,1.5-2.1,2.7-3.3,4-14.5,14.6-29.1,29.1-43.7,43.7-5.9,5.9-9.6,5.9-15.5,0-4.4-4.4-8.9-8.7-13.2-13.3-4.2-4.4-3.8-9.7.6-12.7,3.5-2.4,7.1-2,10.8,1.6,3.1,3,6,6.4,9.3,9.9h0Z"/>
    </g>
  </g>
</svg>