<?xml version="1.0" encoding="UTF-8"?>
<svg id="Layer_2" data-name="Layer 2" xmlns="http://www.w3.org/2000/svg" viewBox="0 0 408.93 408.48">
  <defs>
    <style>
      .cls-1 {
        fill: #000;
      }

      .cls-1, .cls-2 {
        stroke-width: 0px;
      }

      .cls-2 {
        fill: #fff;
      }
    </style>
  </defs>
  <g id="Layer_1-2" data-name="Layer 1">
    <g>
      <path class="cls-1" d="M408.93,206.81c-1.85,3.55-5.02,5.14-8.71,6.27-14.6,4.48-29.16,9.1-44,13.76v4.83c0,39.39,0,78.78,0,118.18,0,7.41-1.35,9.33-8.29,11.64-46.13,15.37-92.28,30.71-138.39,46.14-3.62,1.21-6.85,1.11-10.42-.24-40.9-15.42-81.85-30.72-122.77-46.06-6.27-2.35-7.62-4.32-7.62-10.96,0-38.46,0-76.92,0-115.38v-4.85c-14.57-4.87-28.95-9.62-43.29-14.5-6.14-2.09-7.89-6.97-4.78-12.63.45-.81.95-1.6,1.43-2.4,8.76-14.59,17.52-29.19,26.27-43.78.74-1.24,1.47-2.49,2.66-4.51-1.22-.89-2.55-1.61-3.58-2.63-14.52-14.46-29.02-28.95-43.49-43.47-6.43-6.45-4.86-12.72,3.87-15.45,42.22-13.21,84.45-26.41,126.7-39.51,2.77-.86,4.29-2.25,5.58-4.9C152.82,20.31,173.56,5.05,202.29.72c.75-.11,1.46-.48,2.19-.72,5.32,0,10.65,0,15.97,0,.73.25,1.44.61,2.18.73,31.14,4.83,52.69,21.85,64.43,51.06,1.29,3.21,2.95,4.75,6.18,5.74,35.68,10.87,71.32,21.92,106.98,32.84,3.68,1.13,6.87,2.69,8.7,6.26v4.79c-1.88,2.19-3.64,4.5-5.67,6.55-13.48,13.56-27.02,27.07-40.54,40.6-1,1-1.95,2.04-3.59,3.78,1.51,1.1,2.83,1.82,3.85,2.84,13.46,13.4,26.89,26.82,40.28,40.29,2.03,2.04,3.79,4.36,5.67,6.55v4.79ZM340.12,232.05c-2.03.57-3.56.96-5.06,1.44-27.49,8.64-54.97,17.3-82.46,25.94-7.17,2.26-9.17,1.64-13.78-4.11-7.98-9.97-15.97-19.92-23.92-29.91-.6-.76-.88-1.78-1.31-2.67-.34.33-.68.67-1.02,1v165.98c42.65-14.22,85.07-28.35,127.54-42.51v-115.16ZM84.87,235.53c-.09.98-.18,1.51-.18,2.04,0,35.66.03,71.32-.09,106.99,0,2.67,1.28,3.34,3.28,4.09,35.09,13.12,70.17,26.28,105.25,39.42.96.36,1.97.58,3,.88v-159.87c-6.31,10.51-12.09,20.21-17.97,29.86-2.76,4.52-5.77,5.6-10.83,3.99-6.33-2.01-12.63-4.11-18.94-6.21-21.04-7-42.07-14.02-63.54-21.18ZM212.75,143.72c34.91-.15,63.6-28.8,63.6-63.53,0-35.71-28.55-64.31-64.09-64.21-34.74.1-63.77,29.04-63.67,63.5.1,35.62,28.84,64.39,64.16,64.23ZM385.82,200.78c-1.4-1.47-2.29-2.45-3.22-3.38-11.09-11.11-22.27-22.12-33.22-33.37-2.38-2.45-4.36-2.95-7.59-1.86-33.6,11.32-67.25,22.48-100.88,33.7-7.53,2.51-15.04,5.06-22.85,7.69,1.05,1.42,1.8,2.48,2.61,3.5,8.88,11.12,17.88,22.14,26.58,33.4,2.04,2.63,3.73,2.76,6.63,1.83,24.16-7.7,48.38-15.22,72.57-22.82,19.61-6.16,39.21-12.35,59.37-18.69ZM192.49,204.04c-43.11-14.36-85.63-28.52-128.23-42.71-8.51,14.18-16.79,28-25.23,42.07,43.06,14.35,85.58,28.52,128.24,42.73,8.44-14.08,16.68-27.84,25.22-42.09ZM86.35,151.64c1.94.77,2.66,1.09,3.41,1.34,37.31,12.43,74.62,24.88,111.97,37.18,1.93.64,4.48.4,6.47-.25,36.71-12.13,73.38-24.38,110.05-36.62,1.15-.38,2.26-.9,4.24-1.7-14.72-4.92-28.54-9.22-42.1-14.22-6.4-2.37-11.78-3.36-16.07,3.18-.14.21-.41.34-.62.5-34.54,27.74-81.07,24.23-110.96-8.47-1.73-1.89-3.14-2.16-5.45-1.37-15.34,5.23-30.73,10.33-46.1,15.47-4.6,1.54-9.2,3.08-14.85,4.97ZM23.41,102.58c.5.74.72,1.22,1.07,1.57,12.22,12.24,24.4,24.51,36.77,36.59.95.93,3.4,1.1,4.84.63,15.17-4.89,30.27-9.98,45.39-15.01,9.93-3.3,19.86-6.6,29.1-9.68-2.32-8.15-5.22-15.79-6.55-23.69-1.34-7.9-1.12-16.05-1.6-24.4-35.92,11.2-72.33,22.54-109.02,33.98ZM280.99,120.7c1.37.55,2.32.98,3.3,1.3,19.41,6.47,38.85,12.86,58.22,19.44,2.66.9,4.29.52,6.25-1.47,11.39-11.58,22.92-23.01,34.38-34.5.8-.8,1.49-1.72,2.46-2.84-31.27-9.64-62.07-19.14-93.36-28.78.6,16.94-2.82,32.42-11.25,46.85Z"/>
      <path class="cls-2" d="M408.93,202.02c-1.88-2.19-3.64-4.5-5.67-6.55-13.39-13.47-26.82-26.89-40.28-40.29-1.02-1.02-2.34-1.74-3.85-2.84,1.65-1.74,2.6-2.78,3.59-3.78,13.52-13.53,27.06-27.04,40.54-40.6,2.03-2.04,3.79-4.36,5.67-6.55v100.61Z"/>
      <path class="cls-1" d="M171.8,362.62c-.71-.19-2.29-.46-3.76-1.01-14.81-5.52-29.6-11.08-44.39-16.64-.75-.28-1.5-.56-2.2-.94-4.05-2.17-5.71-6.17-4.19-10.01,1.6-4.04,5.68-5.99,10.17-4.61,3.29,1.02,6.49,2.36,9.72,3.57,12.19,4.56,24.39,9.08,36.56,13.7,5.57,2.11,7.85,6.16,6.24,10.72-1.11,3.16-3.91,5.17-8.15,5.23Z"/>
      <path class="cls-1" d="M172.01,329.17c-7.43-3.05-15.04-5.75-22.22-9.31-3.18-1.58-3.63-5.39-2.27-8.85,1.3-3.32,4.96-5.74,8.25-4.69,7.04,2.25,14,4.82,20.79,7.73,3.4,1.46,4.58,5.47,3.52,8.82-1.1,3.5-4.17,5.7-8.06,6.3Z"/>
      <path class="cls-1" d="M124.7,295.51c4.19.06,7.89,3.84,7.84,8.01-.05,4.18-3.84,7.88-8.01,7.83-4.19-.05-7.9-3.84-7.84-8,.06-4.2,3.84-7.9,8-7.84Z"/>
      <path class="cls-1" d="M204.17,92.91c13.94-13.97,27.06-27.14,40.22-40.28,1.31-1.31,2.67-2.65,4.25-3.57,3.26-1.91,6.42-1.31,9.16,1.17,2.7,2.44,3.32,6.34,1.43,9.45-.88,1.45-2.09,2.74-3.31,3.96-14.54,14.58-29.11,29.14-43.68,43.69-5.9,5.89-9.61,5.89-15.5.02-4.43-4.41-8.93-8.74-13.22-13.27-4.19-4.42-3.83-9.69.6-12.7,3.5-2.37,7.11-1.97,10.76,1.6,3.12,3.04,5.97,6.36,9.29,9.93Z"/>
    </g>
  </g>
</svg>