<?xml version="1.0" encoding="UTF-8"?>
<svg id="Layer_2" data-name="Layer 2" xmlns="http://www.w3.org/2000/svg" viewBox="0 0 383.27 384">
  <defs>
    <style>
      .cls-1 {
        fill: #000;
        stroke-width: 0px;
      }
    </style>
  </defs>
  <g id="Layer_1-2" data-name="Layer 1">
    <g>
      <path class="cls-1" d="M35.95,384c-4.89-1.73-10.15-2.81-14.6-5.32C7.13,370.64.06,358.06.04,341.71c-.06-47.99-.02-95.98-.02-143.97,0-31.49-.06-62.99.02-94.48.06-19.84,12.81-36.1,31.8-40.6,3.36-.8,6.91-1.11,10.37-1.11,54.01-.07,108.02-.05,162.03-.04,7.68,0,12.76,4.4,12.85,11.09.09,6.82-5.07,11.4-12.92,11.41-53.51,0-107.02,0-160.53,0-13.81,0-21.16,7.41-21.16,21.33,0,78.36,0,156.72,0,235.08,0,13.6,7.47,21.09,21.04,21.09,78.33,0,156.66,0,234.99,0,13.35,0,20.92-7.54,20.92-20.83,0-53.36,0-106.73,0-160.09,0-1.62-.09-3.28.2-4.86,1.07-5.67,6.33-9.66,11.92-9.19,5.67.48,10.09,5.1,10.29,10.97.13,3.87.03,7.75.03,11.62,0,50.49-.24,100.98.1,151.47.17,24.58-17.67,40.81-35.08,42.87-.33.04-.64.35-.95.53H35.95Z"/>
      <path class="cls-1" d="M383.27,51.75c-1.92,8.13-7.22,13.92-12.94,19.63-53.88,53.84-107.67,107.76-161.42,161.73-3.4,3.41-7.07,5.55-11.85,6.45-16.28,3.05-32.5,6.47-48.76,9.64-9.02,1.76-15.51-4.78-13.75-13.77,3.33-17.02,6.61-34.06,10.2-51.03.58-2.76,2.15-5.72,4.14-7.71,55.92-56.21,111.96-112.3,167.93-168.47,4.21-4.22,9.33-6.47,14.81-8.22h8.23c7.88,1.69,13.83,6.36,19.15,12.16,3.79,4.12,7.75,8.09,11.86,11.89,5.87,5.42,10.68,11.42,12.4,19.45v8.25ZM159.73,224.05c11.29-2.28,21.67-4.31,32-6.56,1.3-.28,2.48-1.55,3.51-2.58,44.19-44.23,88.35-88.49,132.52-132.75.92-.93,1.79-1.91,2.32-2.47-8.94-8.97-17.55-17.6-26.33-26.4-.74.7-1.73,1.61-2.69,2.57-42.41,42.48-84.74,85.04-127.3,127.37-5.16,5.13-8.73,10.38-9.62,17.76-.91,7.48-2.78,14.85-4.39,23.06ZM346.85,63.04c4.17-4.19,8.4-8.39,12.58-12.66,1.91-1.95,1.84-3.99-.08-5.92-6.86-6.89-13.73-13.78-20.62-20.64-1.66-1.65-3.63-1.92-5.33-.28-4.46,4.31-8.77,8.77-12.99,13.01,8.84,8.86,17.46,17.49,26.44,26.48Z"/>
    </g>
  </g>
</svg>